# AST/ASF file generated using VICON BodyLanguage
# -----------------------------------------------
:version 1.10
:name VICON
:units
  mass 1.0
  length 0.45
  angle deg
:documentation
   .ast/.asf automatically generated from VICON data using
   VICON BodyBuilder and BodyLanguage model FoxedUp or BRILLIANT.MOD
:root
   order TX TY TZ RX RY RZ
   axis XYZ
   position 0 0 0  
   orientation 0 0 0 
:bonedata
  begin
     id 1 
     name lhipjoint
     direction 0.722297 -0.617336 0.311742 
     length 2.6635 
     axis 0 0 0  XYZ
  end
  begin
     id 2 
     name lfemur
     direction 0.34202 -0.939693 0  
     length 7.39349  
     axis 0 0 20  XYZ
    dof rx ry rz
    limits (-160.0 20.0)
           (-70.0 70.0)
           (-60.0 70.0)
  end
  begin
     id 3 
     name ltibia
     direction 0.34202 -0.939693 0   
     length 7.36294   
     axis 0 0 20   XYZ
    dof rx
    limits (-10.0 170.0)
  end
  begin
     id 4 
     name lfoot
     direction 0.104879 -0.288152 0.951824   
     length 2.16981   
     axis -90 7.62852e-016 20   XYZ
    dof rx rz
    limits (-45.0 90.0)
           (-70.0 20.0)
  end
  begin
     id 5 
     name ltoes
     direction 1.53586e-011 -4.21895e-011 1   
     length 1.08218   
     axis -90 7.62852e-016 20   XYZ
    dof rx
    limits (-90.0 20.0)
  end
  begin
     id 6 
     name rhipjoint
     direction -0.75102 -0.589393 0.297631   
     length 2.78977  
     axis 0 0 0  XYZ 
  end
  begin
     id 7 
     name rfemur
     direction -0.34202 -0.939693 0   
     length 7.46076   
     axis 0 0 -20   XYZ
    dof rx ry rz
    limits (-160.0 20.0)
           (-70.0 70.0)
           (-70.0 60.0)
  end
  begin
     id 8 
     name rtibia
     direction -0.34202 -0.939693 0   
     length 7.31726   
     axis 0 0 -20   XYZ
    dof rx
    limits (-10.0 170.0)
 end
 begin
     id 9 
     name rfoot
     direction -0.107991 -0.296704 0.948844   
     length 2.09388  
     axis -90 -7.62852e-016 -20   XYZ
    dof rx rz
    limits (-45.0 90.0)
           (-20.0 70.0)
  end
  begin
     id 10 
     name rtoes
     direction -1.53559e-011 -4.21911e-011 1   
     length 1.04433   
     axis -90 -7.62852e-016 -20   XYZ
    dof rx
    limits (-90.0 20.0)
  end
  begin
     id 11 
     name lowerback
     direction 0.0165164 0.98272 0.184358   
     length 1.71896   
     axis 0 0 0   XYZ
    dof rx ry rz
    limits (-20.0 45.0)
           (-30.0 30.0)
           (-30.0 30.0)
  end
  begin
     id 12 
     name upperback
     direction -0.00887249 0.992297 0.123566   
     length 1.71504   
     axis 0 0 0   XYZ
    dof rx ry rz
    limits (-20.0 45.0)
           (-30.0 30.0)
           (-30.0 30.0)
  end
  begin
     id 13 
     name thorax
     direction -0.0157026 0.998908 0.0440032   
     length 1.77022   
     axis 0 0 0   XYZ
    dof rx ry rz
    limits (-20.0 45.0)
           (-30.0 30.0)
           (-30.0 30.0)
  end
  begin
     id 14 
     name lowerneck
     direction -0.0238856 0.998137 0.0561411   
     length 1.89341   
     axis 0 0 0   XYZ
    dof rx ry rz
    limits (-20.0 45.0)
           (-30.0 30.0)
           (-30.0 30.0)
  end
  begin
     id 15 
     name upperneck
     direction 0.0276574 0.952253 -0.304056   
     length 1.86999   
     axis 0 0 0   XYZ
    dof rx ry rz
    limits (-20.0 45.0)
           (-30.0 30.0)
           (-30.0 30.0)
  end
  begin
     id 16
     name head
     direction 0.00800083 0.994258 -0.106712  
     length 1.91492  
     axis 0 0 0   XYZ
    dof rx ry rz
    limits (-20.0 45.0)
           (-30.0 30.0)
           (-30.0 30.0)
  end
  begin
     id 17 
     name lclavicle
     direction 0.97203 0.225407 0.06595  
     length 3.34889  
     axis 0 0 0   XYZ
    dof ry rz
    limits (-20.0 10.0)
           (0.0 20.0)
  end
  begin
     id 18 
     name lhumerus
     direction 1 -4.48973e-011 2.20267e-027   
     length 4.85645   
     axis 180 -30 -90   XYZ
    dof rx ry rz
    limits (-60.0 90.0)
           (-90.0 90.0)
           (-90.0 90.0)
  end
  begin
     id 19
     name lradius
     direction 1 -4.4897e-011 4.60472e-027   
     length 2.79874   
     axis 180 -30 -90   XYZ
    dof rx
    limits (-10.0 170.0)
  end
  begin
     id 20
     name lwrist
     direction 1 -4.48952e-011 1.14928e-026   
     length 1.39937   
     axis -6.29373e-015 90 90   XYZ
    dof ry
    limits (-180.0 0.0)
 end
  begin
     id 21 
     name lhand
     direction 1 -4.48967e-011 2.29886e-026   
     length 0.573398   
     axis -1.46689e-014 90 90   XYZ
    dof rx rz
    limits (-90.0 90.0)
           (-45.0 45.0)
  end
  begin
     id 22 
     name lfingers
     direction 1 -4.48955e-011 4.59726e-026   
     length 0.462289   
     axis -2.93383e-014 90 90   XYZ
    dof rx
    limits (0.0 90.0)
  end
  begin
     id 23
     name lthumb
     direction 0.707107 -6.34866e-011 0.707107   
     length 0.663757   
     axis -90 45 5.69224e-014   XYZ
    dof rx rz
    limits (-45.0 45.0)
           (-45.0 45.0)
  end
  begin
     id 24 
     name rclavicle
     direction -0.981571 0.157346 0.108443   
     length 3.35257  
     axis 0 0 0   XYZ 
    dof ry rz
    limits (-10.0 20.0)
           (-20.0 0.0)
  end
  begin
     id 25 
     name rhumerus
     direction -1 -4.48967e-011 8.58308e-029  
     length 4.67018   
     axis 180 30 90   XYZ
    dof rx ry rz
    limits (-90.0 60.0)
           (-90.0 90.0)
           (-90.0 90.0)
  end
  begin
     id 26 
     name rradius
     direction -1 -4.48958e-011 4.52548e-027   
     length 2.65534   
     axis 180 30 90   XYZ
    dof rx
    limits (-10.0 170.0)
  end
  begin
     id 27 
     name rwrist
     direction -1 -4.48977e-011 1.14952e-026   
     length 1.32767   
     axis -6.29373e-015 -90 -90   XYZ
    dof ry
    limits (-180.0 0.0)
  end
  begin
     id 28
     name rhand
     direction -1 -4.48924e-011 2.29804e-026   
     length 0.594069   
     axis -1.46689e-014 -90 -90   XYZ
    dof rx rz
    limits (-90.0 90.0)
           (-45.0 45.0)
  end
  begin
     id 29
     name rfingers
     direction -1 -4.48998e-011 4.59888e-026   
     length 0.478954   
     axis -2.93383e-014 -90 -90   XYZ
    dof rx
    limits (0.0 90.0)
  end
  begin
     id 30
     name rthumb
     direction -0.707107 -6.34933e-011 0.707107   
     length 0.687685   
     axis -90 -45 -5.69224e-014   XYZ
    dof rx rz
    limits (-45.0 45.0)
           (-45.0 45.0)
  end
:hierarchy
  begin
    root lhipjoint rhipjoint lowerback
    lhipjoint lfemur
    lfemur ltibia
    ltibia lfoot
    lfoot ltoes
    rhipjoint rfemur
    rfemur rtibia
    rtibia rfoot
    rfoot rtoes
    lowerback upperback
    upperback thorax
    thorax lowerneck lclavicle rclavicle
    lowerneck upperneck
    upperneck head
    lclavicle lhumerus
    lhumerus lradius
    lradius lwrist
    lwrist lhand lthumb
    lhand lfingers
    rclavicle rhumerus
    rhumerus rradius
    rradius rwrist
    rwrist rhand rthumb
    rhand rfingers
  end

#!OML:ASF E:\pregnant2\Project 1\Capture day 1\Session 1\pregnant2.ASF
:FULLY-SPECIFIED
:DEGREES
241
root -4.29418 15.7383 20.12 28.112 5.77289 -0.743872
lowerback -20.2148 0.904453 1.90575
upperback -16.0662 0.992867 -0.735206
thorax -6.25757 0.329238 -1.72462
lowerneck -15.5828 -2.74475 -3.39945
upperneck 34.9643 -3.77513 2.09383
head 14.8384 -1.7652 0.823738
rclavicle -4.57205e-015 1.37161e-014
rhumerus -22.7033 6.10249 -79.3933
rradius 115.597
rwrist 37.0589
rhand -5.74721 -8.36855
rfingers 7.12502
rthumb 20.0753 -37.3514
lclavicle -4.57205e-015 1.37161e-014
lhumerus -26.9965 -2.10029 80.0412
lradius 118.341
lwrist -28.3061
lhand -9.41738 15.4915
lfingers 7.12502
lthumb 16.5446 44.8062
rfemur -56.6542 -3.52251 20.4094
rtibia 62.0441
rfoot -27.4666 -13.6399
rtoes -14.4503
lfemur -57.2663 6.6525 -19.98
ltibia 61.4173
lfoot -27.396 5.74456
ltoes -13.9359
242
root -4.29373 15.7388 20.1192 28.1116 5.77094 -0.741351
lowerback -20.2195 0.90358 1.89902
upperback -16.0677 0.992583 -0.736146
thorax -6.25696 0.329655 -1.72186
lowerneck -15.5822 -2.74527 -3.40226
upperneck 34.9663 -3.77007 2.08058
head 14.8387 -1.7653 0.819608
rclavicle -2.98177e-015 1.82882e-014
rhumerus -22.7128 6.10219 -79.3932
rradius 115.589
rwrist 37.0713
rhand -5.75204 -8.35961
rfingers 7.12502
rthumb 20.0707 -37.3429
lclavicle -2.98177e-015 1.82882e-014
lhumerus -27.005 -2.09509 80.0452
lradius 118.34
lwrist -28.3165
lhand -9.40926 15.4954
lfingers 7.12502
lthumb 16.5525 44.8095
rfemur -56.6532 -3.5221 20.4026
rtibia 62.0359
rfoot -27.463 -13.635
rtoes -14.4403
lfemur -57.2642 6.65092 -19.9856
ltibia 61.4086
lfoot -27.3872 5.74683
ltoes -13.9335
243
root -4.29326 15.7396 20.1185 28.1127 5.76955 -0.73906
lowerback -20.2265 0.902241 1.89258
upperback -16.0699 0.991624 -0.736688
thorax -6.25605 0.329726 -1.71891
lowerneck -15.5788 -2.74536 -3.40527
upperneck 34.9693 -3.76496 2.0688
head 14.839 -1.76522 0.816171
rclavicle 3.27995e-015 -4.17448e-015
rhumerus -22.7208 6.10293 -79.3944
rradius 115.581
rwrist 37.0844
rhand -5.76476 -8.34965
rfingers 7.12502
rthumb 20.0585 -37.3343
lclavicle 3.27995e-015 -4.17448e-015
lhumerus -27.0125 -2.08751 80.0472
lradius 118.341
lwrist -28.3215
lhand -9.387 15.4973
lfingers 7.12502
lthumb 16.5739 44.8095
rfemur -56.6526 -3.52112 20.3958
rtibia 62.0256
rfoot -27.4555 -13.6315
rtoes -14.435
lfemur -57.2624 6.64998 -19.9915
ltibia 61.3971
lfoot -27.377 5.74895
ltoes -13.9363
244
root -4.29282 15.7405 20.1177 28.1142 5.76893 -0.73685
lowerback -20.2333 0.9014 1.88659
upperback -16.0725 0.991265 -0.73792
thorax -6.25577 0.330018 -1.71688
lowerneck -15.5731 -2.74533 -3.40979
upperneck 34.9727 -3.76025 2.05974
head 14.8389 -1.76515 0.814095
rclavicle 1.78906e-015 -1.19271e-015
rhumerus -22.7276 6.10228 -79.3957
rradius 115.575
rwrist 37.0937
rhand -5.78212 -8.34155
rfingers 7.12502
rthumb 20.0418 -37.3279
lclavicle 1.78906e-015 -1.19271e-015
lhumerus -27.021 -2.08132 80.0483
lradius 118.34
lwrist -28.3288
lhand -9.36626 15.4976
lfingers 7.12502
lthumb 16.5939 44.8081
rfemur -56.6516 -3.5187 20.389
rtibia 62.0137
rfoot -27.4457 -13.6297
rtoes -14.4318
lfemur -57.2606 6.64891 -19.9968
ltibia 61.383
lfoot -27.366 5.74711
ltoes -13.9287
245
root -4.29242 15.7414 20.1168 28.1161 5.76653 -0.733319
lowerback -20.238 0.900742 1.87855
upperback -16.0753 0.991452 -0.739957
thorax -6.25663 0.330708 -1.71452
lowerneck -15.5708 -2.74506 -3.41387
upperneck 34.9788 -3.75542 2.0511
head 14.841 -1.76486 0.812104
rclavicle 1.53561e-014 -9.93923e-016
rhumerus -22.7324 6.10169 -79.3977
rradius 115.571
rwrist 37.0956
rhand -5.8033 -8.3364
rfingers 7.12502
rthumb 20.0214 -37.3249
lclavicle 1.53561e-014 -9.93923e-016
lhumerus -27.0282 -2.0742 80.0473
lradius 118.341
lwrist -28.3334
lhand -9.34884 15.496
lfingers 7.12502
lthumb 16.6106 44.8052
rfemur -56.6517 -3.514 20.3801
rtibia 62.0015
rfoot -27.4292 -13.6302
rtoes -14.4334
lfemur -57.2589 6.64806 -20.0034
ltibia 61.367
lfoot -27.3552 5.74158
ltoes -13.9084
246
root -4.29201 15.7423 20.1157 28.1174 5.76476 -0.729852
lowerback -20.2397 0.901096 1.87184
upperback -16.0793 0.992838 -0.74353
thorax -6.26043 0.331762 -1.71445
lowerneck -15.5657 -2.74434 -3.41557
upperneck 34.9855 -3.75052 2.0418
head 14.8426 -1.76433 0.809476
rclavicle 6.70898e-015 1.59028e-015
rhumerus -22.7387 6.0984 -79.4005
rradius 115.569
rwrist 37.093
rhand -5.8167 -8.33436
rfingers 7.12502
rthumb 20.0086 -37.3242
lclavicle 6.70898e-015 1.59028e-015
lhumerus -27.0364 -2.07062 80.0444
lradius 118.34
lwrist -28.3384
lhand -9.34475 15.4946
lfingers 7.12502
lthumb 16.6146 44.8034
rfemur -56.6516 -3.51 20.3717
rtibia 61.9895
rfoot -27.4134 -13.6308
rtoes -14.4335
lfemur -57.257 6.64643 -20.0093
ltibia 61.3499
lfoot -27.3441 5.7344
ltoes -13.8814
247
root -4.29167 15.7432 20.1145 28.1187 5.76226 -0.724384
lowerback -20.2404 0.90144 1.86217
upperback -16.0842 0.994655 -0.747871
thorax -6.26569 0.333244 -1.7135
lowerneck -15.5584 -2.74355 -3.41615
upperneck 34.9927 -3.74551 2.03132
head 14.8439 -1.76378 0.806212
rclavicle 2.50966e-014 -1.2921e-014
rhumerus -22.7469 6.09359 -79.4029
rradius 115.57
rwrist 37.0909
rhand -5.82646 -8.33422
rfingers 7.12502
rthumb 19.9992 -37.325
lclavicle 2.50966e-014 -1.2921e-014
lhumerus -27.044 -2.06848 80.0407
lradius 118.341
lwrist -28.3415
lhand -9.3442 15.4949
lfingers 7.12502
lthumb 16.6151 44.8037
rfemur -56.652 -3.50625 20.3614
rtibia 61.9778
rfoot -27.3984 -13.6321
rtoes -14.4326
lfemur -57.2549 6.644 -20.0166
ltibia 61.3319
lfoot -27.3331 5.72403
ltoes -13.844
